<?xml version="1.0" encoding="utf-8"?>
<!-- Generator: Adobe Illustrator 28.0.0, SVG Export Plug-In . SVG Version: 6.00 Build 0)  -->
<svg version="1.1" id="Слой_1" xmlns="http://www.w3.org/2000/svg" xmlns:xlink="http://www.w3.org/1999/xlink" x="0px" y="0px"
	 viewBox="0 0 35.2 25.7" style="enable-background:new 0 0 35.2 25.7;" xml:space="preserve">
<style type="text/css">
	.st0{fill:#FFFFFF;}
</style>
<g>
	<g>
		<path class="st0" d="M9.3,8.7V6.7c-0.2,0-0.5,0.1-1,0.2c-0.2,0-0.5,0.1-1.1,0.1c-0.3,0-0.8,0-1.2-0.2C5.9,6.6,5.6,6.4,5.6,6
			c0-0.1,0-0.4,0.4-0.6c0.1-0.1,0.4-0.2,1.1-0.2c0.2,0,0.6,0,1.2,0.1c0.2,0,0.6,0.1,1,0.2V3.3C9.2,3.2,8.8,3.1,8.2,2.9
			C8,2.9,7.7,2.8,6.9,2.8c-0.3,0-0.7,0-1.3,0.2C5.4,3.1,5,3.3,4.6,3.7c-0.1,0.1-0.4,0.4-0.6,1C3.9,4.9,3.7,5.3,3.7,6.1
			c0,0.2,0,0.7,0.2,1.2c0.1,0.2,0.2,0.6,0.7,1C4.7,8.4,5,8.6,5.5,8.9L9.3,8.7C9.3,8.8,9.3,8.7,9.3,8.7"/>
		<path class="st0" d="M13.8,6.6c-0.1,0-0.2,0.1-0.5,0.2c-0.1,0-0.3,0.1-0.6,0.1c-0.1,0-0.3,0-0.6-0.1c-0.1,0-0.3-0.1-0.5-0.2
			c-0.1,0-0.2-0.1-0.3-0.3c0-0.1-0.1-0.2-0.1-0.4c0-0.1,0-0.2,0.1-0.4c0-0.1,0.1-0.2,0.3-0.3c0.1,0,0.2-0.1,0.5-0.2
			c0.1,0,0.3-0.1,0.5-0.1c0.1,0,0.3,0,0.6,0.1c0.1,0,0.3,0.1,0.5,0.2c0.1,0,0.2,0.1,0.3,0.3c0,0.1,0.1,0.2,0.1,0.4
			c0,0.1,0,0.2-0.1,0.4C14.1,6.4,14,6.5,13.8,6.6 M15.3,8.4c0.1-0.1,0.4-0.4,0.7-1c0.1-0.2,0.2-0.6,0.2-1.3c0-0.3,0-0.8-0.2-1.4
			c-0.1-0.2-0.2-0.6-0.7-1c-0.1-0.1-0.4-0.4-1.1-0.7C14,3,13.6,2.8,12.8,2.8c-0.3,0-0.8,0-1.4,0.2c-0.2,0.1-0.6,0.2-1.1,0.6
			c-0.1,0.1-0.4,0.4-0.7,1C9.6,4.9,9.5,5.3,9.5,6.1c0,0.2,0,0.7,0.2,1.3c0.1,0.2,0.2,0.6,0.7,1c0.1,0.1,0.3,0.2,0.5,0.4L15,8.6
			C15.1,8.5,15.2,8.4,15.3,8.4"/>
		<path class="st0" d="M22.8,6.7c-0.1,0.1-0.4,0.2-1,0.2c-0.2,0-0.6,0-1-0.2c-0.1-0.1-0.4-0.2-0.4-0.7c0-0.2,0-0.5,0.4-0.7
			c0.1-0.1,0.4-0.2,1-0.2c0.2,0,0.6,0,1,0.2C23,5.4,23.2,5.6,23.2,6C23.2,6.2,23.2,6.5,22.8,6.7 M24.8,7.3C24.8,7.1,25,6.7,25,6
			c0-0.5,0-1.5-0.8-2.3c-0.3-0.3-0.8-0.8-2.3-0.8c-0.2,0-0.6,0-1.1,0.1c-0.2,0.1-0.5,0.1-0.8,0.4c-0.1,0.1-0.4,0.3-0.6,0.6
			c-0.1,0.1-0.3,0.4-0.4,0.8h-0.4V2.9h-2.1v5.6l2.1-0.1V7.1h0.4c0.1,0.3,0.2,0.8,0.7,1.3l4.6-0.1C24.4,8.1,24.6,7.8,24.8,7.3"/>
		<path class="st0" d="M30.5,6.5c-0.1-0.1-0.1-0.2-0.3-0.3c-0.1,0-0.2-0.1-0.4-0.2c0.1-0.1,0.4-0.2,0.6-0.5c0.1-0.1,0.2-0.3,0.2-0.9
			c0-0.2,0-0.5-0.2-0.9c-0.1-0.1-0.2-0.3-0.7-0.5c-0.1-0.1-0.4-0.2-0.9-0.3c-0.2,0-0.5-0.1-1.1-0.1c-0.3,0-0.8,0-1.4,0.1
			c-0.2,0.1-0.6,0.1-1.1,0.3V5c0.1,0,0.2-0.1,0.5-0.1c0.1,0,0.3-0.1,0.6-0.1c0.1,0,0.3,0,0.6-0.1c0.1,0,0.3,0,0.5,0
			c0.1,0,0.4,0,0.7,0c0.1,0,0.3,0,0.4,0.1c0.1,0,0.2,0.1,0.2,0.1c0,0,0.1,0.1,0.1,0.2c0,0,0,0.1-0.1,0.2c0,0-0.1,0.1-0.2,0.1
			c0,0-0.1,0-0.3,0.1c-0.1,0-0.1,0-0.3,0h-1.8v1.2H28c0.1,0,0.3,0,0.5,0c0.1,0,0.2,0,0.3,0.1c0,0,0.1,0.1,0.1,0.1c0,0,0,0.1,0,0.1
			c0,0,0,0.1-0.1,0.2c0,0-0.1,0.1-0.2,0.1c-0.1,0-0.1,0.1-0.4,0.1c-0.1,0-0.3,0-0.7,0c-0.2,0-0.6,0-1.2,0c-0.2,0-0.6,0-1.2-0.2v1
			l5.4-0.2c0.1-0.1,0.1-0.3,0.1-0.5c0-0.1,0.1-0.4,0-0.7C30.7,6.9,30.7,6.7,30.5,6.5"/>
		<polygon class="st0" points="10.3,9.1 7.2,9.2 6.7,11 6.4,11 6,9.2 2.8,9.3 2.3,14.1 4.4,14.1 4.6,11.9 4.8,11.9 5.3,14.1 
			7.8,14.1 8.3,11.9 8.5,11.9 8.8,14.2 10.9,14.2 		"/>
		<path class="st0" d="M11.5,12.5c-0.1,0-0.2,0-0.4-0.1v1.8l2.8,0c0.2-0.2,0.4-0.4,0.7-0.9l2-4.4L14.3,9l-0.7,1.8h-0.3L12.8,9
			l-2.2,0.1l1.7,3.4c0,0-0.1,0-0.3,0C11.8,12.6,11.7,12.6,11.5,12.5"/>
		<polygon class="st0" points="20.4,8.8 16.9,8.9 15.5,14.3 17.7,14.3 18.5,11.3 18.8,11.3 19.6,14.3 21.8,14.4 		"/>
		<path class="st0" d="M25.6,12.6c-0.1,0.1-0.3,0.1-0.9,0.1c0,0-0.1,0-0.2,0c0,0-0.1,0-0.3,0v-1.1c0,0,0.1,0,0.2,0c0,0,0.1,0,0.3,0
			c0.2,0,0.5,0,0.9,0.1c0.1,0,0.3,0.1,0.3,0.4C25.8,12.3,25.8,12.5,25.6,12.6 M26.9,13.9c0.3-0.2,0.7-0.6,0.7-1.8
			c0-0.2,0-0.7-0.2-1.1c-0.1-0.1-0.2-0.5-0.6-0.7c-0.1-0.1-0.4-0.3-0.9-0.4c-0.2,0-0.5-0.1-1.2-0.1h-0.3c0,0-0.1,0-0.3,0V8.7
			l-2.1,0.1v5.6l3.9,0.1C26.3,14.3,26.6,14.2,26.9,13.9"/>
		<polygon class="st0" points="27.4,8.6 27.4,10.5 29.1,10.5 29.1,14.5 31.3,14.5 31.3,10.5 33.1,10.5 33.1,8.4 		"/>
		<path class="st0" d="M13.2,17.5h0.3l0.5,1.8h-1.3L13.2,17.5z M9,22.7h2.7l0.3-0.9h2.9l0.3,0.9h2.7l-2.2-8.1l-4.4-0.1L9,22.7z"/>
		<polygon class="st0" points="26.2,14.8 26.2,22.7 28.9,22.7 28.9,20.3 30.1,20.3 31.1,22.7 34.2,22.7 32.3,18.4 34,14.9 
			30.9,14.8 30.1,16.8 28.9,16.8 28.9,14.8 		"/>
		<polygon class="st0" points="3.5,17.5 6.1,17.5 6.1,22.7 8.8,22.7 8.8,14.5 4.4,14.4 0.8,14.4 0.8,22.7 3.5,22.7 		"/>
		<path class="st0" d="M20.8,17.2c0.1,0,0.3,0,0.6,0c0.1,0,0.3,0,0.5,0c0.3,0,0.9,0,1.3,0.2c0.1,0.1,0.4,0.2,0.4,0.6
			c0,0.1,0,0.4-0.4,0.7c-0.1,0.1-0.4,0.2-1.2,0.2h-0.6c-0.1,0-0.3,0-0.6,0L20.8,17.2L20.8,17.2z M18,22.7h2.8v-1.2
			c0.1,0,0.3,0,0.5,0c0.1,0,0.2,0,0.5,0c0.3,0,0.9,0,1.6-0.2c0.2-0.1,0.7-0.2,1.3-0.7c0.2-0.2,0.5-0.5,0.9-1.1
			c0.1-0.2,0.3-0.7,0.3-1.6c0-0.6,0-1.7-1.1-2.6c-0.2-0.1-0.4-0.3-0.7-0.5L18,14.6V22.7z"/>
	</g>
</g>
</svg>
